<mxfile host="app.diagrams.net" modified="2023-12-10T06:31:53.061Z" agent="Mozilla/5.0 (Macintosh; Intel Mac OS X 10_15_7) AppleWebKit/537.36 (KHTML, like Gecko) Chrome/119.0.0.0 Safari/537.36" etag="JpgUekpTP9graTjdtirR" version="22.1.7" type="device">
  <diagram id="HHL-egPvgZsmG74XO6QN" name="Page-1">
    <mxGraphModel dx="1592" dy="813" grid="1" gridSize="10" guides="1" tooltips="1" connect="1" arrows="1" fold="1" page="1" pageScale="1" pageWidth="827" pageHeight="1169" math="0" shadow="0">
      <root>
        <mxCell id="0" />
        <mxCell id="1" parent="0" />
        <mxCell id="-uGRZ2pIm0S1T1JtXn79-20" style="edgeStyle=orthogonalEdgeStyle;rounded=0;orthogonalLoop=1;jettySize=auto;html=1;entryX=0;entryY=0.75;entryDx=0;entryDy=0;" parent="1" source="-uGRZ2pIm0S1T1JtXn79-1" target="-uGRZ2pIm0S1T1JtXn79-14" edge="1">
          <mxGeometry relative="1" as="geometry" />
        </mxCell>
        <mxCell id="-uGRZ2pIm0S1T1JtXn79-1" value="" style="whiteSpace=wrap;html=1;aspect=fixed;" parent="1" vertex="1">
          <mxGeometry x="150" y="80" width="60" height="60" as="geometry" />
        </mxCell>
        <mxCell id="-uGRZ2pIm0S1T1JtXn79-13" style="edgeStyle=orthogonalEdgeStyle;rounded=0;orthogonalLoop=1;jettySize=auto;html=1;" parent="1" source="-uGRZ2pIm0S1T1JtXn79-2" edge="1">
          <mxGeometry relative="1" as="geometry">
            <mxPoint x="310" y="170" as="targetPoint" />
          </mxGeometry>
        </mxCell>
        <mxCell id="-uGRZ2pIm0S1T1JtXn79-2" value="" style="whiteSpace=wrap;html=1;aspect=fixed;" parent="1" vertex="1">
          <mxGeometry x="150" y="140" width="60" height="60" as="geometry" />
        </mxCell>
        <mxCell id="-uGRZ2pIm0S1T1JtXn79-3" value="" style="whiteSpace=wrap;html=1;aspect=fixed;" parent="1" vertex="1">
          <mxGeometry x="150" y="260" width="60" height="60" as="geometry" />
        </mxCell>
        <mxCell id="-uGRZ2pIm0S1T1JtXn79-4" value="" style="whiteSpace=wrap;html=1;aspect=fixed;" parent="1" vertex="1">
          <mxGeometry x="150" y="200" width="60" height="60" as="geometry" />
        </mxCell>
        <mxCell id="-uGRZ2pIm0S1T1JtXn79-5" value="char* name" style="text;html=1;strokeColor=none;fillColor=none;align=center;verticalAlign=middle;whiteSpace=wrap;rounded=0;" parent="1" vertex="1">
          <mxGeometry x="90" y="90" width="60" height="30" as="geometry" />
        </mxCell>
        <mxCell id="-uGRZ2pIm0S1T1JtXn79-6" value="struct node* nptr" style="text;html=1;strokeColor=none;fillColor=none;align=center;verticalAlign=middle;whiteSpace=wrap;rounded=0;" parent="1" vertex="1">
          <mxGeometry x="90" y="155" width="60" height="30" as="geometry" />
        </mxCell>
        <mxCell id="-uGRZ2pIm0S1T1JtXn79-7" value="int* iarray" style="text;html=1;strokeColor=none;fillColor=none;align=center;verticalAlign=middle;whiteSpace=wrap;rounded=0;" parent="1" vertex="1">
          <mxGeometry x="90" y="215" width="60" height="30" as="geometry" />
        </mxCell>
        <mxCell id="-uGRZ2pIm0S1T1JtXn79-8" value="int ilen" style="text;html=1;strokeColor=none;fillColor=none;align=center;verticalAlign=middle;whiteSpace=wrap;rounded=0;" parent="1" vertex="1">
          <mxGeometry x="90" y="275" width="60" height="30" as="geometry" />
        </mxCell>
        <mxCell id="-uGRZ2pIm0S1T1JtXn79-31" style="edgeStyle=orthogonalEdgeStyle;rounded=0;orthogonalLoop=1;jettySize=auto;html=1;entryX=0;entryY=0.5;entryDx=0;entryDy=0;" parent="1" source="-uGRZ2pIm0S1T1JtXn79-9" target="-uGRZ2pIm0S1T1JtXn79-26" edge="1">
          <mxGeometry relative="1" as="geometry" />
        </mxCell>
        <mxCell id="-uGRZ2pIm0S1T1JtXn79-9" value="" style="whiteSpace=wrap;html=1;aspect=fixed;" parent="1" vertex="1">
          <mxGeometry x="310" y="140" width="60" height="60" as="geometry" />
        </mxCell>
        <mxCell id="-uGRZ2pIm0S1T1JtXn79-40" style="edgeStyle=orthogonalEdgeStyle;rounded=0;orthogonalLoop=1;jettySize=auto;html=1;" parent="1" source="-uGRZ2pIm0S1T1JtXn79-10" edge="1">
          <mxGeometry relative="1" as="geometry">
            <mxPoint x="400" y="290" as="targetPoint" />
          </mxGeometry>
        </mxCell>
        <mxCell id="-uGRZ2pIm0S1T1JtXn79-10" value="" style="whiteSpace=wrap;html=1;aspect=fixed;" parent="1" vertex="1">
          <mxGeometry x="310" y="260" width="60" height="60" as="geometry" />
        </mxCell>
        <mxCell id="-uGRZ2pIm0S1T1JtXn79-25" style="edgeStyle=orthogonalEdgeStyle;rounded=0;orthogonalLoop=1;jettySize=auto;html=1;entryX=0;entryY=0.5;entryDx=0;entryDy=0;" parent="1" source="-uGRZ2pIm0S1T1JtXn79-11" target="-uGRZ2pIm0S1T1JtXn79-21" edge="1">
          <mxGeometry relative="1" as="geometry">
            <mxPoint x="480" y="230" as="targetPoint" />
          </mxGeometry>
        </mxCell>
        <mxCell id="-uGRZ2pIm0S1T1JtXn79-11" value="" style="whiteSpace=wrap;html=1;aspect=fixed;" parent="1" vertex="1">
          <mxGeometry x="310" y="200" width="60" height="60" as="geometry" />
        </mxCell>
        <mxCell id="-uGRZ2pIm0S1T1JtXn79-12" value="&lt;font style=&quot;font-size: 24px;&quot;&gt;2&lt;/font&gt;" style="whiteSpace=wrap;html=1;aspect=fixed;" parent="1" vertex="1">
          <mxGeometry x="310" y="320" width="60" height="60" as="geometry" />
        </mxCell>
        <mxCell id="-uGRZ2pIm0S1T1JtXn79-14" value="c" style="whiteSpace=wrap;html=1;aspect=fixed;" parent="1" vertex="1">
          <mxGeometry x="250" y="80" width="40" height="40" as="geometry" />
        </mxCell>
        <mxCell id="-uGRZ2pIm0S1T1JtXn79-15" value="o" style="whiteSpace=wrap;html=1;aspect=fixed;" parent="1" vertex="1">
          <mxGeometry x="290" y="80" width="40" height="40" as="geometry" />
        </mxCell>
        <mxCell id="-uGRZ2pIm0S1T1JtXn79-16" value="p" style="whiteSpace=wrap;html=1;aspect=fixed;" parent="1" vertex="1">
          <mxGeometry x="370" y="80" width="40" height="40" as="geometry" />
        </mxCell>
        <mxCell id="-uGRZ2pIm0S1T1JtXn79-17" value="e" style="whiteSpace=wrap;html=1;aspect=fixed;" parent="1" vertex="1">
          <mxGeometry x="330" y="80" width="40" height="40" as="geometry" />
        </mxCell>
        <mxCell id="-uGRZ2pIm0S1T1JtXn79-19" value="\0" style="whiteSpace=wrap;html=1;aspect=fixed;" parent="1" vertex="1">
          <mxGeometry x="410" y="80" width="40" height="40" as="geometry" />
        </mxCell>
        <mxCell id="-uGRZ2pIm0S1T1JtXn79-39" style="edgeStyle=orthogonalEdgeStyle;rounded=0;orthogonalLoop=1;jettySize=auto;html=1;entryX=0;entryY=0.5;entryDx=0;entryDy=0;" parent="1" source="-uGRZ2pIm0S1T1JtXn79-21" target="-uGRZ2pIm0S1T1JtXn79-33" edge="1">
          <mxGeometry relative="1" as="geometry" />
        </mxCell>
        <mxCell id="-uGRZ2pIm0S1T1JtXn79-21" value="" style="whiteSpace=wrap;html=1;aspect=fixed;" parent="1" vertex="1">
          <mxGeometry x="494" y="215" width="60" height="60" as="geometry" />
        </mxCell>
        <mxCell id="pc2hSvvOLzy39CVxAClw-3" style="edgeStyle=orthogonalEdgeStyle;rounded=0;orthogonalLoop=1;jettySize=auto;html=1;" edge="1" parent="1" source="-uGRZ2pIm0S1T1JtXn79-22">
          <mxGeometry relative="1" as="geometry">
            <mxPoint x="740" y="410" as="targetPoint" />
          </mxGeometry>
        </mxCell>
        <mxCell id="-uGRZ2pIm0S1T1JtXn79-22" value="" style="whiteSpace=wrap;html=1;aspect=fixed;" parent="1" vertex="1">
          <mxGeometry x="494" y="275" width="60" height="60" as="geometry" />
        </mxCell>
        <mxCell id="-uGRZ2pIm0S1T1JtXn79-55" style="edgeStyle=orthogonalEdgeStyle;rounded=0;orthogonalLoop=1;jettySize=auto;html=1;" parent="1" source="-uGRZ2pIm0S1T1JtXn79-23" edge="1">
          <mxGeometry relative="1" as="geometry">
            <mxPoint x="600" y="365" as="targetPoint" />
          </mxGeometry>
        </mxCell>
        <mxCell id="-uGRZ2pIm0S1T1JtXn79-23" value="" style="whiteSpace=wrap;html=1;aspect=fixed;" parent="1" vertex="1">
          <mxGeometry x="494" y="335" width="60" height="60" as="geometry" />
        </mxCell>
        <mxCell id="-uGRZ2pIm0S1T1JtXn79-24" value="&lt;font style=&quot;font-size: 24px;&quot;&gt;4&lt;/font&gt;" style="whiteSpace=wrap;html=1;aspect=fixed;" parent="1" vertex="1">
          <mxGeometry x="494" y="395" width="60" height="60" as="geometry" />
        </mxCell>
        <mxCell id="-uGRZ2pIm0S1T1JtXn79-26" value="c" style="whiteSpace=wrap;html=1;aspect=fixed;" parent="1" vertex="1">
          <mxGeometry x="420" y="130" width="40" height="40" as="geometry" />
        </mxCell>
        <mxCell id="-uGRZ2pIm0S1T1JtXn79-27" value="o" style="whiteSpace=wrap;html=1;aspect=fixed;" parent="1" vertex="1">
          <mxGeometry x="460" y="130" width="40" height="40" as="geometry" />
        </mxCell>
        <mxCell id="-uGRZ2pIm0S1T1JtXn79-28" value="e" style="whiteSpace=wrap;html=1;aspect=fixed;" parent="1" vertex="1">
          <mxGeometry x="500" y="130" width="40" height="40" as="geometry" />
        </mxCell>
        <mxCell id="-uGRZ2pIm0S1T1JtXn79-29" value="p" style="whiteSpace=wrap;html=1;aspect=fixed;" parent="1" vertex="1">
          <mxGeometry x="540" y="130" width="40" height="40" as="geometry" />
        </mxCell>
        <mxCell id="-uGRZ2pIm0S1T1JtXn79-30" value="2" style="whiteSpace=wrap;html=1;aspect=fixed;" parent="1" vertex="1">
          <mxGeometry x="580" y="130" width="40" height="40" as="geometry" />
        </mxCell>
        <mxCell id="-uGRZ2pIm0S1T1JtXn79-32" value="\0" style="whiteSpace=wrap;html=1;aspect=fixed;" parent="1" vertex="1">
          <mxGeometry x="620" y="130" width="40" height="40" as="geometry" />
        </mxCell>
        <mxCell id="-uGRZ2pIm0S1T1JtXn79-33" value="c" style="whiteSpace=wrap;html=1;aspect=fixed;" parent="1" vertex="1">
          <mxGeometry x="600" y="225" width="40" height="40" as="geometry" />
        </mxCell>
        <mxCell id="-uGRZ2pIm0S1T1JtXn79-34" value="o" style="whiteSpace=wrap;html=1;aspect=fixed;" parent="1" vertex="1">
          <mxGeometry x="640" y="225" width="40" height="40" as="geometry" />
        </mxCell>
        <mxCell id="-uGRZ2pIm0S1T1JtXn79-35" value="e" style="whiteSpace=wrap;html=1;aspect=fixed;" parent="1" vertex="1">
          <mxGeometry x="680" y="225" width="40" height="40" as="geometry" />
        </mxCell>
        <mxCell id="-uGRZ2pIm0S1T1JtXn79-36" value="p" style="whiteSpace=wrap;html=1;aspect=fixed;" parent="1" vertex="1">
          <mxGeometry x="720" y="225" width="40" height="40" as="geometry" />
        </mxCell>
        <mxCell id="-uGRZ2pIm0S1T1JtXn79-37" value="4" style="whiteSpace=wrap;html=1;aspect=fixed;" parent="1" vertex="1">
          <mxGeometry x="760" y="225" width="40" height="40" as="geometry" />
        </mxCell>
        <mxCell id="-uGRZ2pIm0S1T1JtXn79-38" value="\0" style="whiteSpace=wrap;html=1;aspect=fixed;" parent="1" vertex="1">
          <mxGeometry x="800" y="225" width="40" height="40" as="geometry" />
        </mxCell>
        <mxCell id="-uGRZ2pIm0S1T1JtXn79-41" value="" style="whiteSpace=wrap;html=1;aspect=fixed;" parent="1" vertex="1">
          <mxGeometry x="400" y="275" width="30" height="30" as="geometry" />
        </mxCell>
        <mxCell id="-uGRZ2pIm0S1T1JtXn79-42" value="" style="whiteSpace=wrap;html=1;aspect=fixed;" parent="1" vertex="1">
          <mxGeometry x="430" y="275" width="30" height="30" as="geometry" />
        </mxCell>
        <mxCell id="-uGRZ2pIm0S1T1JtXn79-54" style="edgeStyle=orthogonalEdgeStyle;rounded=0;orthogonalLoop=1;jettySize=auto;html=1;entryX=0;entryY=0.5;entryDx=0;entryDy=0;" parent="1" source="-uGRZ2pIm0S1T1JtXn79-43" target="-uGRZ2pIm0S1T1JtXn79-48" edge="1">
          <mxGeometry relative="1" as="geometry" />
        </mxCell>
        <mxCell id="-uGRZ2pIm0S1T1JtXn79-43" value="" style="whiteSpace=wrap;html=1;aspect=fixed;" parent="1" vertex="1">
          <mxGeometry x="760" y="320" width="60" height="60" as="geometry" />
        </mxCell>
        <mxCell id="pc2hSvvOLzy39CVxAClw-1" style="edgeStyle=orthogonalEdgeStyle;rounded=0;orthogonalLoop=1;jettySize=auto;html=1;" edge="1" parent="1" source="-uGRZ2pIm0S1T1JtXn79-44">
          <mxGeometry relative="1" as="geometry">
            <mxPoint x="1170" y="410" as="targetPoint" />
          </mxGeometry>
        </mxCell>
        <mxCell id="-uGRZ2pIm0S1T1JtXn79-44" value="" style="whiteSpace=wrap;html=1;aspect=fixed;" parent="1" vertex="1">
          <mxGeometry x="760" y="380" width="60" height="60" as="geometry" />
        </mxCell>
        <mxCell id="-uGRZ2pIm0S1T1JtXn79-68" style="edgeStyle=orthogonalEdgeStyle;rounded=0;orthogonalLoop=1;jettySize=auto;html=1;entryX=0;entryY=0.5;entryDx=0;entryDy=0;" parent="1" source="-uGRZ2pIm0S1T1JtXn79-45" target="-uGRZ2pIm0S1T1JtXn79-63" edge="1">
          <mxGeometry relative="1" as="geometry" />
        </mxCell>
        <mxCell id="-uGRZ2pIm0S1T1JtXn79-45" value="" style="whiteSpace=wrap;html=1;aspect=fixed;" parent="1" vertex="1">
          <mxGeometry x="760" y="440" width="60" height="60" as="geometry" />
        </mxCell>
        <mxCell id="-uGRZ2pIm0S1T1JtXn79-46" value="&lt;font style=&quot;font-size: 24px;&quot;&gt;8&lt;/font&gt;" style="whiteSpace=wrap;html=1;aspect=fixed;" parent="1" vertex="1">
          <mxGeometry x="760" y="500" width="60" height="60" as="geometry" />
        </mxCell>
        <mxCell id="-uGRZ2pIm0S1T1JtXn79-48" value="c" style="whiteSpace=wrap;html=1;aspect=fixed;" parent="1" vertex="1">
          <mxGeometry x="890" y="330" width="40" height="40" as="geometry" />
        </mxCell>
        <mxCell id="-uGRZ2pIm0S1T1JtXn79-49" value="o" style="whiteSpace=wrap;html=1;aspect=fixed;" parent="1" vertex="1">
          <mxGeometry x="930" y="330" width="40" height="40" as="geometry" />
        </mxCell>
        <mxCell id="-uGRZ2pIm0S1T1JtXn79-50" value="e" style="whiteSpace=wrap;html=1;aspect=fixed;" parent="1" vertex="1">
          <mxGeometry x="970" y="330" width="40" height="40" as="geometry" />
        </mxCell>
        <mxCell id="-uGRZ2pIm0S1T1JtXn79-51" value="p" style="whiteSpace=wrap;html=1;aspect=fixed;" parent="1" vertex="1">
          <mxGeometry x="1010" y="330" width="40" height="40" as="geometry" />
        </mxCell>
        <mxCell id="-uGRZ2pIm0S1T1JtXn79-52" value="8" style="whiteSpace=wrap;html=1;aspect=fixed;" parent="1" vertex="1">
          <mxGeometry x="1050" y="330" width="40" height="40" as="geometry" />
        </mxCell>
        <mxCell id="-uGRZ2pIm0S1T1JtXn79-53" value="\0" style="whiteSpace=wrap;html=1;aspect=fixed;" parent="1" vertex="1">
          <mxGeometry x="1090" y="330" width="40" height="40" as="geometry" />
        </mxCell>
        <mxCell id="-uGRZ2pIm0S1T1JtXn79-56" value="" style="whiteSpace=wrap;html=1;aspect=fixed;" parent="1" vertex="1">
          <mxGeometry x="600" y="350" width="30" height="30" as="geometry" />
        </mxCell>
        <mxCell id="-uGRZ2pIm0S1T1JtXn79-57" value="" style="whiteSpace=wrap;html=1;aspect=fixed;" parent="1" vertex="1">
          <mxGeometry x="630" y="350" width="30" height="30" as="geometry" />
        </mxCell>
        <mxCell id="-uGRZ2pIm0S1T1JtXn79-58" value="" style="whiteSpace=wrap;html=1;aspect=fixed;" parent="1" vertex="1">
          <mxGeometry x="660" y="350" width="30" height="30" as="geometry" />
        </mxCell>
        <mxCell id="-uGRZ2pIm0S1T1JtXn79-59" value="" style="whiteSpace=wrap;html=1;aspect=fixed;" parent="1" vertex="1">
          <mxGeometry x="690" y="350" width="30" height="30" as="geometry" />
        </mxCell>
        <mxCell id="-uGRZ2pIm0S1T1JtXn79-60" value="" style="whiteSpace=wrap;html=1;aspect=fixed;" parent="1" vertex="1">
          <mxGeometry x="960" y="455" width="30" height="30" as="geometry" />
        </mxCell>
        <mxCell id="-uGRZ2pIm0S1T1JtXn79-61" value="" style="whiteSpace=wrap;html=1;aspect=fixed;" parent="1" vertex="1">
          <mxGeometry x="930" y="455" width="30" height="30" as="geometry" />
        </mxCell>
        <mxCell id="-uGRZ2pIm0S1T1JtXn79-62" value="" style="whiteSpace=wrap;html=1;aspect=fixed;" parent="1" vertex="1">
          <mxGeometry x="900" y="455" width="30" height="30" as="geometry" />
        </mxCell>
        <mxCell id="-uGRZ2pIm0S1T1JtXn79-63" value="" style="whiteSpace=wrap;html=1;aspect=fixed;" parent="1" vertex="1">
          <mxGeometry x="870" y="455" width="30" height="30" as="geometry" />
        </mxCell>
        <mxCell id="-uGRZ2pIm0S1T1JtXn79-64" value="" style="whiteSpace=wrap;html=1;aspect=fixed;" parent="1" vertex="1">
          <mxGeometry x="1080" y="455" width="30" height="30" as="geometry" />
        </mxCell>
        <mxCell id="-uGRZ2pIm0S1T1JtXn79-65" value="" style="whiteSpace=wrap;html=1;aspect=fixed;" parent="1" vertex="1">
          <mxGeometry x="1050" y="455" width="30" height="30" as="geometry" />
        </mxCell>
        <mxCell id="-uGRZ2pIm0S1T1JtXn79-66" value="" style="whiteSpace=wrap;html=1;aspect=fixed;" parent="1" vertex="1">
          <mxGeometry x="1020" y="455" width="30" height="30" as="geometry" />
        </mxCell>
        <mxCell id="-uGRZ2pIm0S1T1JtXn79-67" value="" style="whiteSpace=wrap;html=1;aspect=fixed;" parent="1" vertex="1">
          <mxGeometry x="990" y="455" width="30" height="30" as="geometry" />
        </mxCell>
        <mxCell id="-uGRZ2pIm0S1T1JtXn79-70" style="edgeStyle=orthogonalEdgeStyle;rounded=0;orthogonalLoop=1;jettySize=auto;html=1;entryX=0.5;entryY=0;entryDx=0;entryDy=0;" parent="1" source="-uGRZ2pIm0S1T1JtXn79-69" target="-uGRZ2pIm0S1T1JtXn79-21" edge="1">
          <mxGeometry relative="1" as="geometry" />
        </mxCell>
        <mxCell id="-uGRZ2pIm0S1T1JtXn79-69" value="q" style="whiteSpace=wrap;html=1;aspect=fixed;" parent="1" vertex="1">
          <mxGeometry x="440" y="185" width="40" height="40" as="geometry" />
        </mxCell>
        <mxCell id="-uGRZ2pIm0S1T1JtXn79-73" style="edgeStyle=orthogonalEdgeStyle;rounded=0;orthogonalLoop=1;jettySize=auto;html=1;entryX=0.5;entryY=0;entryDx=0;entryDy=0;" parent="1" source="-uGRZ2pIm0S1T1JtXn79-72" target="-uGRZ2pIm0S1T1JtXn79-43" edge="1">
          <mxGeometry relative="1" as="geometry" />
        </mxCell>
        <mxCell id="-uGRZ2pIm0S1T1JtXn79-72" value="p" style="whiteSpace=wrap;html=1;aspect=fixed;" parent="1" vertex="1">
          <mxGeometry x="840" y="275" width="40" height="40" as="geometry" />
        </mxCell>
        <mxCell id="-uGRZ2pIm0S1T1JtXn79-75" value="" style="endArrow=classic;html=1;rounded=0;" parent="1" edge="1">
          <mxGeometry width="50" height="50" relative="1" as="geometry">
            <mxPoint x="1170" y="590" as="sourcePoint" />
            <mxPoint x="80" y="590" as="targetPoint" />
          </mxGeometry>
        </mxCell>
        <mxCell id="-uGRZ2pIm0S1T1JtXn79-76" value="" style="endArrow=classic;html=1;rounded=0;" parent="1" edge="1">
          <mxGeometry width="50" height="50" relative="1" as="geometry">
            <mxPoint x="80" y="590" as="sourcePoint" />
            <mxPoint x="80" y="40" as="targetPoint" />
          </mxGeometry>
        </mxCell>
        <mxCell id="-uGRZ2pIm0S1T1JtXn79-77" value="" style="endArrow=classic;html=1;rounded=0;" parent="1" edge="1">
          <mxGeometry width="50" height="50" relative="1" as="geometry">
            <mxPoint x="80" y="40" as="sourcePoint" />
            <mxPoint x="180" y="40" as="targetPoint" />
          </mxGeometry>
        </mxCell>
        <mxCell id="-uGRZ2pIm0S1T1JtXn79-78" value="" style="endArrow=classic;html=1;rounded=0;entryX=0.5;entryY=0;entryDx=0;entryDy=0;" parent="1" target="-uGRZ2pIm0S1T1JtXn79-1" edge="1">
          <mxGeometry width="50" height="50" relative="1" as="geometry">
            <mxPoint x="180" y="40" as="sourcePoint" />
            <mxPoint x="670" y="310" as="targetPoint" />
          </mxGeometry>
        </mxCell>
        <mxCell id="-uGRZ2pIm0S1T1JtXn79-79" value="&lt;font style=&quot;font-size: 24px;&quot;&gt;a&lt;/font&gt;" style="text;html=1;strokeColor=none;fillColor=none;align=center;verticalAlign=middle;whiteSpace=wrap;rounded=0;" parent="1" vertex="1">
          <mxGeometry x="170" y="50" width="60" height="30" as="geometry" />
        </mxCell>
        <mxCell id="pc2hSvvOLzy39CVxAClw-2" value="" style="endArrow=classic;html=1;rounded=0;" edge="1" parent="1">
          <mxGeometry width="50" height="50" relative="1" as="geometry">
            <mxPoint x="1170" y="410" as="sourcePoint" />
            <mxPoint x="1170" y="590" as="targetPoint" />
          </mxGeometry>
        </mxCell>
        <mxCell id="pc2hSvvOLzy39CVxAClw-4" value="" style="endArrow=classic;html=1;rounded=0;entryX=0;entryY=0.5;entryDx=0;entryDy=0;" edge="1" parent="1" target="-uGRZ2pIm0S1T1JtXn79-44">
          <mxGeometry width="50" height="50" relative="1" as="geometry">
            <mxPoint x="740" y="410" as="sourcePoint" />
            <mxPoint x="630" y="290" as="targetPoint" />
          </mxGeometry>
        </mxCell>
      </root>
    </mxGraphModel>
  </diagram>
</mxfile>
